<?xml version="1.0" encoding="UTF-8" standalone="no"?>
<!-- Created with Inkscape (http://www.inkscape.org/) -->

<svg
   xmlns:dc="http://purl.org/dc/elements/1.1/"
   xmlns:cc="http://creativecommons.org/ns#"
   xmlns:rdf="http://www.w3.org/1999/02/22-rdf-syntax-ns#"
   xmlns:svg="http://www.w3.org/2000/svg"
   xmlns="http://www.w3.org/2000/svg"
   xmlns:sodipodi="http://sodipodi.sourceforge.net/DTD/sodipodi-0.dtd"
   xmlns:inkscape="http://www.inkscape.org/namespaces/inkscape"
   width="177.39789mm"
   height="177.39789mm"
   viewBox="0 0 177.39789 177.39789"
   version="1.1"
   id="svg8"
   inkscape:version="0.92.0 r15299"
   sodipodi:docname="the-language-clubs-path2.svg">
  <title
     id="title8462">Language Clubs</title>
  <defs
     id="defs2" />
  <sodipodi:namedview
     id="base"
     pagecolor="#ffffff"
     bordercolor="#666666"
     borderopacity="1.0"
     inkscape:pageopacity="0.0"
     inkscape:pageshadow="2"
     inkscape:zoom="0.7"
     inkscape:cx="-64.50361"
     inkscape:cy="226.51912"
     inkscape:document-units="mm"
     inkscape:current-layer="layer1"
     showgrid="false"
     inkscape:window-width="1920"
     inkscape:window-height="1017"
     inkscape:window-x="-8"
     inkscape:window-y="-8"
     inkscape:window-maximized="1"
     fit-margin-top="0"
     fit-margin-left="0"
     fit-margin-right="0"
     fit-margin-bottom="0"
     showborder="false" />
  <metadata
     id="metadata5">
    <rdf:RDF>
      <cc:Work
         rdf:about="">
        <dc:format>image/svg+xml</dc:format>
        <dc:type
           rdf:resource="http://purl.org/dc/dcmitype/StillImage" />
        <dc:title>Language Clubs</dc:title>
        <dc:source>https://thelanguageclubs.com/</dc:source>
        <dc:publisher>
          <cc:Agent>
            <dc:title>https://thelanguageclubs.com/</dc:title>
          </cc:Agent>
        </dc:publisher>
        <dc:subject>
          <rdf:Bag>
            <rdf:li>Learn Languages</rdf:li>
          </rdf:Bag>
        </dc:subject>
      </cc:Work>
    </rdf:RDF>
  </metadata>
  <g
     inkscape:label="Layer 1"
     inkscape:groupmode="layer"
     id="layer1"
     transform="translate(1.0345392,0.7037144)">
    <path
       sodipodi:nodetypes="cssscc"
       inkscape:connector-curvature="0"
       id="path8513"
       d="m 109.52128,155.50779 c -21.839102,-5.45204 -34.298482,-28.80973 -28.755442,-50.2109 6.29833,-24.317366 32.410282,-38.146856 56.296002,-31.780506 26.79615,7.1421 41.99707,36.011436 34.80555,62.381106 -7.98396,29.27535 -39.61299,45.84868 -68.46623,37.8306 l 5.89732,-17.98891"
       style="opacity:1;fill:#f4c601;fill-opacity:1;fill-rule:evenodd;stroke:none;stroke-width:5.26499987;stroke-linecap:round;stroke-miterlimit:4;stroke-dasharray:none" />
    <path
       sodipodi:nodetypes="cssscc"
       inkscape:connector-curvature="0"
       id="path8511"
       d="M 76.668878,139.77361 C 102.84564,133.3948 117.7797,106.06666 111.1357,81.027627 103.5864,52.576677 72.288116,36.396385 43.658248,43.844918 11.539869,52.201065 -6.680247,85.977739 1.9396488,116.82986 11.509376,151.08157 49.420538,170.47211 84.004558,161.09108 l -7.068627,-21.04674"
       style="opacity:1;fill:#348228;fill-opacity:1;fill-rule:evenodd;stroke:none;stroke-width:5.26499987;stroke-linecap:round;stroke-miterlimit:4;stroke-dasharray:none" />
    <path
       style="opacity:1;fill:#bd2531;fill-opacity:1;fill-rule:evenodd;stroke:none;stroke-width:5.26499987;stroke-linecap:round;stroke-miterlimit:4;stroke-dasharray:none"
       d="M 95.842274,66.132891 C 78.502957,61.804201 68.610734,43.259186 73.011675,26.267559 78.012283,6.960591 98.744064,-4.0194418 117.70831,1.035172 c 21.27502,5.670527 33.34391,28.591559 27.63414,49.527979 -6.33893,23.24339 -31.45104,36.40191 -54.359276,30.035902 l 4.68221,-14.282452"
       id="path8459"
       inkscape:connector-curvature="0"
       sodipodi:nodetypes="cssscc" />
    <g
       aria-label="language"
       style="font-style:normal;font-variant:normal;font-weight:500;font-stretch:normal;font-size:28.6620369px;line-height:21.49652672px;font-family:'AR BERKLEY';-inkscape-font-specification:'AR BERKLEY Medium';letter-spacing:0.56105936px;word-spacing:0px;fill:#ffffff;fill-opacity:1;stroke:none;stroke-width:0.26458332"
       id="text8483">
      <path
         d="m 13.642127,89.973816 0.14331,0.372606 q 0,0.859861 -1.203806,3.525431 -1.203805,2.636907 -2.350287,5.187828 -1.2611292,2.952189 -1.2611292,4.184659 0,0.20063 0.028662,0.31528 0.057324,0.086 0.2006342,0.31528 l 0.5732408,0.25796 q 0.6305652,0 1.2897922,-0.45859 0.945847,-0.65923 1.920356,-1.34712 l 0.315282,0.17198 0.143311,0.42993 q 0,1.06049 -2.264301,2.60824 -2.2643013,1.54775 -3.3821208,1.54775 -0.1719722,0 -1.3184537,-0.71655 -1.1464815,-0.74521 -1.1464815,-0.91718 0,-2.14966 1.0318334,-4.90121 0.9458472,-2.264304 1.8916944,-4.528604 1.0604954,-2.636908 1.0604954,-4.35663 0.2006342,-0.315282 1.8057088,-1.031833 1.605074,-0.745213 2.206976,-0.831199 z"
         style="font-style:normal;font-variant:normal;font-weight:500;font-stretch:normal;font-family:'AR BERKLEY';-inkscape-font-specification:'AR BERKLEY Medium';fill:#ffffff;fill-opacity:1;stroke-width:0.26458332"
         id="path8442"
         inkscape:connector-curvature="0" />
      <path
         d="m 14.862861,107.11371 q -0.601903,0 -0.917186,-0.65922 -0.315282,-0.68789 -0.315282,-1.40444 0,-2.32163 3.926699,-5.617762 3.955361,-3.324796 6.448958,-3.324796 0.831199,0 1.662399,0.315282 1.117819,0.429931 1.117819,1.089157 0,0.97451 -0.945847,3.754729 -0.945847,2.78022 -0.945847,4.32797 0,0.25795 0.14331,0.71655 0.171972,0.42993 0.200634,0.65922 -0.08599,0.31529 -0.343944,0.57324 -0.257959,0.28662 -0.573241,0.28662 -0.257959,0 -0.831199,-0.086 -0.573241,-0.0573 -0.773875,-0.0573 -0.573241,0 -0.773875,-0.88852 -0.200635,-0.88852 -0.200635,-2.12099 0,-0.34394 0,-0.63056 0,-0.28662 0.02866,-0.51592 -1.175144,1.57641 -3.0955,2.57958 -1.891695,1.00317 -3.812051,1.00317 z m 2.808879,-2.60824 q 0,0.31528 0.257959,0.31528 1.089157,0 3.66874,-2.8662 2.579584,-2.866207 2.579584,-3.955364 0,-0.200634 -0.315283,-0.200634 -1.232467,0 -3.726065,2.694228 -2.464935,2.66557 -2.464935,4.01269 z"
         style="font-style:normal;font-variant:normal;font-weight:500;font-stretch:normal;font-family:'AR BERKLEY';-inkscape-font-specification:'AR BERKLEY Medium';fill:#ffffff;fill-opacity:1;stroke-width:0.26458332"
         id="path8444"
         inkscape:connector-curvature="0" />
      <path
         d="m 38.117087,96.164816 q 0.745213,0 1.060495,0.630565 0.229297,0.458592 0.229297,1.289791 0,1.089158 -0.573241,3.095498 -0.573241,2.00634 -0.573241,2.98085 0,0.14331 0.257959,0.51592 0.257958,0.37261 0.257958,0.51592 0,0.45859 -1.26113,1.17514 -1.261129,0.68789 -1.83437,0.68789 -0.601903,0 -0.831199,-0.68789 -0.200634,-0.68789 -0.200634,-1.49043 0,-0.88852 0.401268,-2.00634 1.117819,-3.066836 1.146482,-3.324794 l -0.114649,-0.200634 q -0.257958,0 -1.83437,2.178318 -1.748384,2.40761 -3.496768,4.81522 -0.888524,0.37261 -1.748385,0.74521 -0.14331,-0.086 -0.544578,-0.45859 -0.372607,-0.40127 -0.372607,-0.54458 0,-0.68789 1.175144,-4.55726 1.175143,-3.89804 1.605074,-4.442619 0.05732,-0.08599 0.888523,-0.487255 0.859861,-0.42993 0.945847,-0.42993 0.315282,0 0.630565,0.171972 0.315282,0.14331 0.601903,0.401268 0.08599,0.229297 0.171972,0.458593 0,0.257958 -0.487255,1.203806 -0.659227,1.261129 -0.687889,1.347115 l -0.974509,2.35029 q 1.289792,-1.63374 2.608245,-3.296137 2.321625,-2.636907 3.554093,-2.636907 z"
         style="font-style:normal;font-variant:normal;font-weight:500;font-stretch:normal;font-family:'AR BERKLEY';-inkscape-font-specification:'AR BERKLEY Medium';fill:#ffffff;fill-opacity:1;stroke-width:0.26458332"
         id="path8446"
         inkscape:connector-curvature="0" />
      <path
         d="m 42.109977,106.82709 q -0.257959,0 -0.687889,-0.31528 -0.401269,-0.34394 -0.630565,-0.63056 l -0.05732,-0.37261 q 0,-2.78022 3.210148,-6.105014 3.23881,-3.353458 5.933042,-3.353458 0.802537,0 1.633736,0.08599 0.831199,0.08599 1.605074,0.28662 l 0.372606,0.458593 q -0.831199,3.726059 -1.232467,5.331139 -0.859861,3.49676 -1.777047,6.24832 -1.089157,3.3248 -2.092328,4.84388 -0.286621,0.42993 -1.347116,0.8312 -1.031833,0.42993 -1.662398,0.42993 -1.834371,0 -3.210148,-1.00317 -1.54775,-1.11782 -1.54775,-2.89486 0,-0.57324 0.659227,-1.74839 0.659226,-1.14648 1.146481,-1.14648 0.372606,0.086 0.544579,0.11465 0.315282,0.40127 1.117819,2.63691 0.630565,1.77704 1.69106,2.29296 0.487255,-0.2293 1.40444,-3.89804 1.289792,-5.10184 1.375778,-5.38846 -1.633736,1.4331 -2.95219,2.20698 -1.863032,1.08915 -3.496768,1.08915 z m 2.722893,-2.80888 0.171972,0.34395 q 1.433102,-0.65923 2.751556,-1.97768 1.318454,-1.31846 2.035004,-2.751558 0.200635,-0.42993 0.429931,-0.859861 0.343944,-0.716551 0.343944,-0.917185 0,-0.229296 -0.229296,-0.229296 -1.576412,0 -3.554092,2.37895 -1.949019,2.37895 -1.949019,4.01268 z"
         style="font-style:normal;font-variant:normal;font-weight:500;font-stretch:normal;font-family:'AR BERKLEY';-inkscape-font-specification:'AR BERKLEY Medium';fill:#ffffff;fill-opacity:1;stroke-width:0.26458332"
         id="path8448"
         inkscape:connector-curvature="0" />
      <path
         d="m 58.216161,105.79526 q -0.716551,0.42993 -1.433102,0.85986 -0.343945,0.28662 -0.573241,0.37261 -0.200634,0.086 -0.42993,0.086 -0.458593,0 -1.060496,-0.63056 -0.573241,-0.65923 -0.573241,-1.11782 0,-1.00317 1.089158,-4.47128 1.117819,-3.496767 1.719722,-4.127332 0.200634,-0.200634 1.146482,-0.71655 0.945847,-0.544579 1.203805,-0.544579 0.343945,0 0.687889,0.687889 0.114648,0.229296 0.401268,1.031833 -1.261129,2.980849 -2.493597,5.933039 0,0.42993 0.343945,0.42993 0.544578,0 1.662398,-1.83437 1.031833,-1.71972 2.092329,-3.439442 1.289791,-1.83437 2.292962,-1.83437 0.372607,0 0.630565,0.601903 0.257959,0.601903 0.257959,1.060495 0,0.831199 -0.257959,2.092324 -0.57324,2.80888 -0.57324,3.49677 0,0.28662 0.114648,0.80254 0.14331,0.48726 0.171972,0.68789 -0.229296,0.54458 -1.060495,1.26113 -0.831199,0.68789 -1.375778,0.68789 -0.286621,0 -0.716551,-0.45859 -0.401269,-0.48726 -0.401269,-0.80254 0,-0.91719 0.143311,-1.92036 0.14331,-1.00317 0.28662,-1.97768 -0.745213,0.97451 -1.490426,1.94902 -1.060495,1.28979 -1.805708,1.83437 z"
         style="font-style:normal;font-variant:normal;font-weight:500;font-stretch:normal;font-family:'AR BERKLEY';-inkscape-font-specification:'AR BERKLEY Medium';fill:#ffffff;fill-opacity:1;stroke-width:0.26458332"
         id="path8450"
         inkscape:connector-curvature="0" />
      <path
         d="m 67.265663,107.11371 q -0.601903,0 -0.917185,-0.65922 -0.315282,-0.68789 -0.315282,-1.40444 0,-2.32163 3.926699,-5.617762 3.955361,-3.324796 6.448958,-3.324796 0.831199,0 1.662398,0.315282 1.117819,0.429931 1.117819,1.089157 0,0.97451 -0.945847,3.754729 -0.945847,2.78022 -0.945847,4.32797 0,0.25795 0.14331,0.71655 0.171972,0.42993 0.200634,0.65922 -0.08599,0.31529 -0.343944,0.57324 -0.257958,0.28662 -0.573241,0.28662 -0.257958,0 -0.831199,-0.086 -0.573241,-0.0573 -0.773875,-0.0573 -0.573241,0 -0.773875,-0.88852 -0.200634,-0.88852 -0.200634,-2.12099 0,-0.34394 0,-0.63056 0,-0.28662 0.02866,-0.51592 -1.175144,1.57641 -3.0955,2.57958 -1.891694,1.00317 -3.812051,1.00317 z m 2.80888,-2.60824 q 0,0.31528 0.257958,0.31528 1.089157,0 3.668741,-2.8662 2.579583,-2.866207 2.579583,-3.955364 0,-0.200634 -0.315282,-0.200634 -1.232468,0 -3.726065,2.694228 -2.464935,2.66557 -2.464935,4.01269 z"
         style="font-style:normal;font-variant:normal;font-weight:500;font-stretch:normal;font-family:'AR BERKLEY';-inkscape-font-specification:'AR BERKLEY Medium';fill:#ffffff;fill-opacity:1;stroke-width:0.26458332"
         id="path8452"
         inkscape:connector-curvature="0" />
      <path
         d="m 81.691985,106.82709 q -0.257958,0 -0.687889,-0.31528 -0.401268,-0.34394 -0.630565,-0.63056 l -0.05732,-0.37261 q 0,-2.78022 3.210148,-6.105014 3.23881,-3.353458 5.933042,-3.353458 0.802537,0 1.633736,0.08599 0.831199,0.08599 1.605074,0.28662 l 0.372607,0.458593 q -0.831199,3.726059 -1.232468,5.331139 -0.859861,3.49676 -1.777046,6.24832 -1.089158,3.3248 -2.092329,4.84388 -0.28662,0.42993 -1.347116,0.8312 -1.031833,0.42993 -1.662398,0.42993 -1.83437,0 -3.210148,-1.00317 -1.54775,-1.11782 -1.54775,-2.89486 0,-0.57324 0.659227,-1.74839 0.659227,-1.14648 1.146481,-1.14648 0.372607,0.086 0.544579,0.11465 0.315282,0.40127 1.11782,2.63691 0.630564,1.77704 1.69106,2.29296 0.487254,-0.2293 1.404439,-3.89804 1.289792,-5.10184 1.375778,-5.38846 -1.633736,1.4331 -2.95219,2.20698 -1.863032,1.08915 -3.496768,1.08915 z m 2.722893,-2.80888 0.171973,0.34395 q 1.433102,-0.65923 2.751555,-1.97768 1.318454,-1.31846 2.035005,-2.751558 0.200634,-0.42993 0.42993,-0.859861 0.343945,-0.716551 0.343945,-0.917185 0,-0.229296 -0.229296,-0.229296 -1.576412,0 -3.554093,2.37895 -1.949019,2.37895 -1.949019,4.01268 z"
         style="font-style:normal;font-variant:normal;font-weight:500;font-stretch:normal;font-family:'AR BERKLEY';-inkscape-font-specification:'AR BERKLEY Medium';fill:#ffffff;fill-opacity:1;stroke-width:0.26458332"
         id="path8454"
         inkscape:connector-curvature="0" />
      <path
         d="m 100.29176,105.62329 q 0.37261,0 0.80254,-0.14331 1.26113,-0.42993 1.31845,-0.42993 l 0.42993,0.14331 0.14331,0.3726 q 0,0.71655 -1.66239,1.2898 -1.34712,0.45859 -2.292967,0.45859 -0.429931,0 -0.630565,-0.0573 -0.171972,-0.0287 -1.232468,-0.3726 -1.232467,-0.34395 -2.464935,-0.68789 -0.945847,-0.48726 -0.945847,-2.23564 0,-2.55092 2.837542,-5.388463 2.837541,-2.837542 5.41712,-2.837542 0.74522,0 1.14649,0.544579 0.42993,0.515917 0.42993,1.318454 0,0.773875 -0.11465,1.175143 -0.086,0.372607 -0.34395,0.716551 -0.51591,1.060498 -1.00317,2.120988 -0.85986,1.08916 -1.89169,1.83437 -1.031835,0.74522 -2.292965,1.03184 1.003172,1.14648 2.350285,1.14648 z m -2.464933,-3.38212 q 0,0.48725 0.343945,0.48725 0.659227,0 2.035008,-1.63373 1.37577,-1.63374 1.37577,-2.522263 0,-0.573241 -0.42993,-0.573241 -0.97451,0 -2.149649,1.633736 -1.175144,1.605078 -1.175144,2.608248 z"
         style="font-style:normal;font-variant:normal;font-weight:500;font-stretch:normal;font-family:'AR BERKLEY';-inkscape-font-specification:'AR BERKLEY Medium';fill:#ffffff;fill-opacity:1;stroke-width:0.26458332"
         id="path8456"
         inkscape:connector-curvature="0" />
    </g>
    <g
       aria-label="The"
       transform="scale(0.89827639,1.1132431)"
       style="font-style:normal;font-variant:normal;font-weight:500;font-stretch:normal;font-size:33.35840607px;line-height:25.01880455px;font-family:'AR BERKLEY';-inkscape-font-specification:'AR BERKLEY Medium';letter-spacing:0.6529907px;word-spacing:0px;fill:#fffbfb;fill-opacity:1;stroke:none;stroke-width:0.26458332"
       id="text8487">
      <path
         d="m 108.94036,45.040286 q 0,0.100075 0.0667,0.333584 0.10007,0.233509 0.20015,0.433659 0.26687,0.100075 0.53373,0.20015 0.30023,0.100076 0.50038,0.166792 2.83546,0 7.03862,-2.70203 2.70203,-1.734638 3.90294,-2.268372 l 0.43366,0.166792 0.20015,0.433659 q -0.46702,1.634562 -3.73615,3.535991 -2.66867,1.567845 -6.53824,2.968898 -3.26913,1.200903 -5.37071,1.567846 l -0.46701,-0.200151 q -0.46702,-0.767243 -0.66717,-1.134186 -0.4003,-0.700526 -0.4003,-1.267619 0,-3.335841 1.26762,-7.272133 1.03411,-3.269123 3.06897,-7.172057 1.40105,-2.702031 3.70278,-6.538248 -1.73463,0 -5.20391,-0.233508 -3.46927,-0.233509 -5.20391,-0.233509 -3.002256,0 -6.471531,0.967394 -4.670177,1.300977 -4.670177,3.502632 0,1.234261 1.000753,2.001505 1.200902,0.567092 2.435163,1.134185 0.100076,0.266868 0.200151,0.63381 0.133433,0.333584 0.133433,0.500376 0,0.333584 -0.166792,0.800602 -0.166792,0.433659 -0.366942,0.800602 l -1.234261,0.567093 q -2.001505,0 -3.169049,-1.90143 -1.000752,-1.634561 -1.000752,-3.769499 0,-1.501129 1.000752,-2.501881 0.300226,-0.300226 1.334336,-1.134186 4.003009,-3.169048 5.937797,-4.036367 2.702031,-1.200902 7.205419,-1.200902 2.73539,0 5.47078,0.166792 2.73538,0.133433 5.80436,0.300225 3.10233,0.133434 5.13719,0.133434 0.13344,0 0.30023,0.100075 0.16679,0.100075 0.20015,0.133434 l 0.36694,0.700526 q -0.46702,1.701279 -1.73464,2.735389 -0.33358,0.03336 -0.66716,0.06672 -0.30023,0 -0.73389,0 -0.43366,0 -1.30098,-0.03336 -0.86732,-0.03336 -1.30098,-0.03336 -2.73538,4.236518 -4.67017,8.940053 -2.36845,5.737646 -2.36845,9.64058 z"
         style="font-style:normal;font-variant:normal;font-weight:500;font-stretch:normal;font-family:'AR BERKLEY';-inkscape-font-specification:'AR BERKLEY Medium';fill:#fffbfb;fill-opacity:1;stroke-width:0.26458332"
         id="path8435"
         inkscape:connector-curvature="0" />
      <path
         d="m 134.53606,33.164693 q 0.53373,0 0.83396,0.400301 0.33358,0.366942 0.33358,0.900677 0,1.267619 -0.4003,3.13569 -0.86732,4.069726 -0.86732,5.203911 l 0.33359,0.667169 0.53373,0.133433 0.23351,0.333584 -0.10007,0.733885 q -0.10008,0.100075 -1.40106,0.767244 -1.26762,0.700526 -1.50113,0.800601 -2.03486,-0.333584 -2.03486,-2.168296 0,-1.200903 0.4003,-2.668673 1.13419,-4.136442 1.16755,-4.470026 l -0.20015,-0.20015 q -1.53449,0.934035 -3.16905,3.269123 -1.06747,1.534487 -2.40181,4.003009 -1.2009,0.733885 -2.50188,1.167544 l -0.53373,-0.366942 -0.13344,-0.567093 q 0,-0.433659 0.40031,-1.534487 0.56709,-1.567845 1.16754,-3.169048 0.53373,-2.134938 1.43441,-4.536744 0.23351,-0.600451 3.03562,-7.405566 1.13418,-2.768747 1.66792,-3.435916 1.00075,-1.234261 3.3692,-1.86807 l 0.43365,0.233509 q 0.20015,0.300225 0.20015,0.500376 0,0.700526 -1.33433,4.036367 -0.8006,2.034863 -2.63532,6.238022 -0.96739,2.201655 -1.90142,4.369951 1.6012,-1.701279 2.56859,-2.601956 2.06822,-1.901429 3.00226,-1.901429 z"
         style="font-style:normal;font-variant:normal;font-weight:500;font-stretch:normal;font-family:'AR BERKLEY';-inkscape-font-specification:'AR BERKLEY Medium';fill:#fffbfb;fill-opacity:1;stroke-width:0.26458332"
         id="path8437"
         inkscape:connector-curvature="0" />
      <path
         d="m 145.2367,43.972817 q 0.43366,0 0.93404,-0.166792 1.46777,-0.500376 1.53448,-0.500376 l 0.50038,0.166792 0.16679,0.433659 q 0,0.83396 -1.93478,1.501128 -1.56785,0.533735 -2.66868,0.533735 -0.50037,0 -0.73388,-0.06672 -0.20015,-0.03336 -1.43441,-0.433659 -1.43442,-0.400301 -2.86883,-0.800602 -1.10082,-0.567093 -1.10082,-2.601956 0,-2.968898 3.30248,-6.27138 3.30248,-3.302482 6.30474,-3.302482 0.86732,0 1.33433,0.633809 0.50038,0.600452 0.50038,1.534487 0,0.900677 -0.13343,1.367695 -0.10008,0.433659 -0.40031,0.83396 -0.60045,1.234261 -1.16754,2.468522 -1.00075,1.267619 -2.20165,2.134938 -1.20091,0.867318 -2.66868,1.200902 1.16755,1.334337 2.73539,1.334337 z m -2.86882,-3.936292 q 0,0.567093 0.4003,0.567093 0.76724,0 2.36845,-1.901429 1.6012,-1.90143 1.6012,-2.93554 0,-0.667168 -0.50038,-0.667168 -1.13418,0 -2.50188,1.901429 -1.36769,1.868071 -1.36769,3.035615 z"
         style="font-style:normal;font-variant:normal;font-weight:500;font-stretch:normal;font-family:'AR BERKLEY';-inkscape-font-specification:'AR BERKLEY Medium';fill:#fffbfb;fill-opacity:1;stroke-width:0.26458332"
         id="path8439"
         inkscape:connector-curvature="0" />
    </g>
    <g
       aria-label="Clubs"
       transform="scale(0.89827639,1.1132431)"
       style="font-style:normal;font-variant:normal;font-weight:500;font-stretch:normal;font-size:29.77975082px;line-height:22.33481407px;font-family:'AR BERKLEY';-inkscape-font-specification:'AR BERKLEY Medium';letter-spacing:0.58293855px;word-spacing:0px;fill:#fffbfb;fill-opacity:1;stroke:none;stroke-width:0.26458332"
       id="text8683">
      <path
         d="m 136.83001,122.87113 q 0,1.36987 -4.46696,2.76951 -3.87137,1.22097 -5.83683,1.22097 -3.81181,0 -6.76001,-2.29304 -3.21621,-2.5015 -3.21621,-6.19419 0,-1.28053 0.38714,-2.08458 0.62537,-1.01251 1.10185,-1.78678 2.41216,-3.93093 5.95595,-5.98573 3.57357,-2.05481 8.24899,-2.05481 0.38714,0 0.77427,0 0.38714,0 0.80406,-0.0298 1.48898,0 2.14414,0.32758 0.98273,0.50626 0.98273,1.78679 0,0.77427 -0.26802,1.10185 -0.23823,0.32757 -1.01251,0.59559 -1.96546,-0.50625 -2.88863,-0.71471 -1.63789,-0.38714 -3.00776,-0.38714 -3.84159,0 -6.55154,1.63789 -3.21622,1.93568 -3.21622,5.59859 0,2.88864 2.73974,5.50925 2.76952,2.59084 5.65815,2.59084 0.62538,0 1.22097,-0.17868 l 6.73023,-1.84634 z"
         style="font-style:normal;font-variant:normal;font-weight:500;font-stretch:normal;font-family:'AR BERKLEY';-inkscape-font-specification:'AR BERKLEY Medium';fill:#fffbfb;fill-opacity:1;stroke-width:0.26458332"
         id="path8424"
         inkscape:connector-curvature="0" />
      <path
         d="m 147.40452,108.9342 0.1489,0.38714 q 0,0.89339 -1.25075,3.66291 -1.25075,2.73974 -2.44194,5.39013 -1.31031,3.06732 -1.31031,4.34785 0,0.20846 0.0298,0.32758 0.0596,0.0893 0.20846,0.32757 l 0.5956,0.26802 q 0.65515,0 1.34008,-0.47648 0.98274,-0.68493 1.99525,-1.39964 l 0.32758,0.17867 0.14889,0.4467 q 0,1.10185 -2.3526,2.70996 -2.3526,1.6081 -3.51401,1.6081 -0.17868,0 -1.36987,-0.74449 -1.19119,-0.77427 -1.19119,-0.95295 0,-2.23348 1.07208,-5.09234 0.98273,-2.3526 1.96546,-4.7052 1.10185,-2.73974 1.10185,-4.52652 0.20846,-0.32758 1.87612,-1.07207 1.66767,-0.77428 2.29304,-0.86362 z"
         style="font-style:normal;font-variant:normal;font-weight:500;font-stretch:normal;font-family:'AR BERKLEY';-inkscape-font-specification:'AR BERKLEY Medium';fill:#fffbfb;fill-opacity:1;stroke-width:0.26458332"
         id="path8426"
         inkscape:connector-curvature="0" />
      <path
         d="m 152.06775,125.37263 q -0.74449,0.44669 -1.48899,0.89339 -0.35735,0.2978 -0.59559,0.38713 -0.20846,0.0893 -0.4467,0.0893 -0.47647,0 -1.10185,-0.65515 -0.59559,-0.68493 -0.59559,-1.16141 0,-1.04229 1.13163,-4.64564 1.16141,-3.63313 1.78678,-4.28829 0.20846,-0.20845 1.19119,-0.74449 0.98273,-0.56581 1.25075,-0.56581 0.35736,0 0.71472,0.71471 0.11912,0.23824 0.41691,1.07207 -1.31031,3.09709 -2.59084,6.16441 0,0.44669 0.35736,0.44669 0.56582,0 1.72723,-1.9059 1.07207,-1.78678 2.17392,-3.57357 1.34009,-1.9059 2.38238,-1.9059 0.38714,0 0.65515,0.62537 0.26802,0.62538 0.26802,1.10185 0,0.86362 -0.26802,2.17392 -0.59559,2.91842 -0.59559,3.63313 0,0.2978 0.11912,0.83384 0.1489,0.50625 0.17868,0.71471 -0.23824,0.56582 -1.10185,1.31031 -0.86362,0.71471 -1.42943,0.71471 -0.2978,0 -0.7445,-0.47647 -0.41691,-0.50626 -0.41691,-0.83384 0,-0.95295 0.1489,-1.99524 0.14889,-1.04229 0.29779,-2.0548 -0.77427,1.01251 -1.54854,2.02502 -1.10185,1.34009 -1.87613,1.90591 z"
         style="font-style:normal;font-variant:normal;font-weight:500;font-stretch:normal;font-family:'AR BERKLEY';-inkscape-font-specification:'AR BERKLEY Medium';fill:#fffbfb;fill-opacity:1;stroke-width:0.26458332"
         id="path8428"
         inkscape:connector-curvature="0" />
      <path
         d="m 167.69412,115.27729 q 3.15665,0 3.15665,3.06731 0,2.14415 -1.04229,3.81181 -0.89339,1.45921 -2.7993,2.76952 -1.04229,0.86361 -1.57832,1.25075 -1.01251,0.74449 -1.87613,0.74449 -1.01251,0 -1.78678,-1.28053 -0.7445,-1.31031 -0.7445,-2.44194 0,-1.34008 1.19119,-5.12211 1.1912,-3.78203 2.59084,-6.93869 1.57833,-3.57357 2.53128,-4.2585 0.17868,-0.11912 1.04229,-0.4467 0.8934,-0.32757 1.04229,-0.32757 0.32758,0 0.62538,0.41691 0.2978,0.41692 0.2978,0.7445 0,0.20846 -0.23824,0.59559 -1.10185,1.87613 -2.0548,3.81181 -0.92318,1.93568 -1.69745,3.93093 0.65515,-0.32758 1.34009,-0.32758 z m -3.21621,7.02802 q 0,0.83383 0.14889,1.39965 0.17868,0.53604 0.83384,0.53604 1.28053,0 2.02502,-1.66767 0.5956,-1.34009 0.5956,-2.7993 0,-0.68493 -0.35736,-1.22097 -0.35736,-0.56581 -1.04229,-0.56581 -1.13163,0 -1.75701,1.66766 -0.44669,1.22097 -0.44669,2.6504 z"
         style="font-style:normal;font-variant:normal;font-weight:500;font-stretch:normal;font-family:'AR BERKLEY';-inkscape-font-specification:'AR BERKLEY Medium';fill:#fffbfb;fill-opacity:1;stroke-width:0.26458332"
         id="path8430"
         inkscape:connector-curvature="0" />
      <path
         d="m 177.93686,117.86813 q 0.77428,1.28053 1.36987,2.41216 0.62538,1.10185 0.62538,2.0548 0,1.93568 -2.02503,3.24599 -1.78678,1.16141 -3.84159,1.16141 -0.95295,0 -1.66766,-0.26801 -1.04229,-0.38714 -1.04229,-1.16141 0,-0.71472 0.74449,-1.69745 0.77427,-0.98273 1.45921,-0.98273 0.59559,0 1.19119,1.07207 0.62537,1.04229 1.10185,1.04229 0.35736,0 0.35736,-0.47648 0,-1.78678 -1.04229,-3.33533 -1.0423,-1.54854 -1.0423,-2.02502 0,-1.07207 1.99525,-2.76952 2.02502,-1.72722 3.18643,-1.72722 0.4467,0 0.89339,0.23824 0.4467,0.23823 0.4467,0.65515 0,0.92317 -0.17868,1.51877 -0.26802,0.95295 -0.98273,0.95295 -0.4467,0 -0.74449,-0.1489 -0.2978,-0.17868 -0.62538,-0.53604 -0.17868,0.41692 -0.17868,0.77428 z"
         style="font-style:normal;font-variant:normal;font-weight:500;font-stretch:normal;font-family:'AR BERKLEY';-inkscape-font-specification:'AR BERKLEY Medium';fill:#fffbfb;fill-opacity:1;stroke-width:0.26458332"
         id="path8432"
         inkscape:connector-curvature="0" />
    </g>
  </g>
</svg>
